<svg id="Ebene_1" data-name="Ebene 1" xmlns="http://www.w3.org/2000/svg" viewBox="0 0 90 90"><defs><style>.cls-1{fill:#1d1d1b;}</style></defs><path class="cls-1" d="M48.06,48.8A13.74,13.74,0,1,1,61.8,35.06,13.75,13.75,0,0,1,48.06,48.8Zm0-23.46a9.72,9.72,0,1,0,9.72,9.72A9.73,9.73,0,0,0,48.06,25.34Z"/><path class="cls-1" d="M64.53,70.07H31.59a4.86,4.86,0,0,1-4.66-3.51,12,12,0,0,1,3.6-12.12c3.2-3.07,7.59-4.63,10.45-3.71a25.86,25.86,0,0,0,7.07,1.32h0a25.78,25.78,0,0,0,7.08-1.32c2.86-.92,7.26.64,10.46,3.71a12,12,0,0,1,3.59,12.12A4.84,4.84,0,0,1,64.53,70.07ZM39.15,54.48a9.59,9.59,0,0,0-5.83,2.86,8.12,8.12,0,0,0-2.51,8.13.82.82,0,0,0,.78.58H64.53a.83.83,0,0,0,.78-.58,8.14,8.14,0,0,0-2.51-8.13c-2.44-2.34-5.35-3.13-6.43-2.78A29,29,0,0,1,48,56.07a29,29,0,0,1-8.29-1.51A2,2,0,0,0,39.15,54.48Z"/></svg>