<svg id="Ebene_1" data-name="Ebene 1" xmlns="http://www.w3.org/2000/svg" viewBox="0 0 90 90"><defs><style>.cls-1{fill:#1d1d1b;}</style></defs><path class="cls-1" d="M36.92,70.12A6.17,6.17,0,1,1,43.08,64,6.18,6.18,0,0,1,36.92,70.12Zm0-8.29A2.13,2.13,0,1,0,39,64,2.12,2.12,0,0,0,36.92,61.83Z"/><path class="cls-1" d="M61.6,70.12A6.17,6.17,0,1,1,67.77,64,6.17,6.17,0,0,1,61.6,70.12Zm0-8.29A2.13,2.13,0,1,0,63.73,64,2.12,2.12,0,0,0,61.6,61.83Z"/><path class="cls-1" d="M69.79,27.42H30.12l-.87-4.27A2.29,2.29,0,0,0,27,21.32H17.71a.91.91,0,0,0-.91.91v2.21a.92.92,0,0,0,.91.92h7.87l7.26,35.35h31a2,2,0,0,0,2-2.36,2.09,2.09,0,0,0-2.1-1.68H36.13l-1-5.09H65.15a2.34,2.34,0,0,0,2.29-1.84L71.84,30A2.09,2.09,0,0,0,69.79,27.42Zm-6,20.12H34.26L31,31.45H67.38Z"/></svg>