<svg id="Ebene_1" data-name="Ebene 1" xmlns="http://www.w3.org/2000/svg" viewBox="0 0 90 90"><defs><style>.cls-1{fill:#1d1d1b;}</style></defs><path class="cls-1" d="M45,66.36a4.74,4.74,0,0,1-3.45-1.47L25.24,48a16.07,16.07,0,0,1-4.36-8.33,13.06,13.06,0,0,1,4.29-12.16h0a12.8,12.8,0,0,1,9.6-3.81c4.46.24,8.16,2.89,10.12,4.63,4.32-3.81,12.4-7.57,19.91-.85a12.85,12.85,0,0,1,4.31,12.19A16.16,16.16,0,0,1,64.76,48L48.45,64.89A4.76,4.76,0,0,1,45,66.36ZM34.12,27.64a9,9,0,0,0-6.23,2.74h0a9,9,0,0,0-3.07,8.54,12.11,12.11,0,0,0,3.3,6.26L44.43,62.11a.75.75,0,0,0,.57.25.77.77,0,0,0,.57-.25l16.3-16.93a12.2,12.2,0,0,0,3.31-6.26,8.89,8.89,0,0,0-3.05-8.51c-7.61-6.82-15.42,1.65-15.75,2l-1.52,1.67L43.38,32.4s-4-4.51-8.84-4.75Z"/></svg>