<svg id="Ebene_1" data-name="Ebene 1" xmlns="http://www.w3.org/2000/svg" viewBox="0 0 49.65 50"><defs><style>.cls-1{fill:#1d1d1b;}</style></defs><path class="cls-1" d="M120.51,100a20.34,20.34,0,1,0,20.34,20.34A20.34,20.34,0,0,0,120.51,100Zm0,35.94a15.61,15.61,0,1,1,15.61-15.6A15.61,15.61,0,0,1,120.51,135.94Z" transform="translate(-100.18 -100)"/><path class="cls-1" d="M140.89,131.43h.76a2.34,2.34,0,0,1,2.34,2.34v16.59a1.1,1.1,0,0,1-1.1,1.1h-3.24a1.1,1.1,0,0,1-1.1-1.1V133.77a2.34,2.34,0,0,1,2.34-2.34Z" transform="translate(-158.82 41.32) rotate(-45)"/></svg>