<svg xmlns="http://www.w3.org/2000/svg" viewBox="4008 335.571 37 17.729">
  <defs>
    <style>
      .cls-1 {
        fill: #5cbcf6;
      }
    </style>
  </defs>
  <g id="produkt_Stream" data-name="produkt Stream" transform="translate(3975 -50)">
    <path id="Pfad_261" data-name="Pfad 261" class="cls-1" d="M-1.6-4.018,0-5.179,1.6-4.018.993-2.143H-.988Zm-.34-4.157A4.888,4.888,0,0,1,0-8.571a4.888,4.888,0,0,1,1.942.4,5.023,5.023,0,0,1,1.6,1.066A5.023,5.023,0,0,1,4.6-5.513,4.888,4.888,0,0,1,5-3.571a4.888,4.888,0,0,1-.4,1.942,5.023,5.023,0,0,1-1.066,1.6,5.023,5.023,0,0,1-1.6,1.066A4.888,4.888,0,0,1,0,1.429a4.888,4.888,0,0,1-1.942-.4,5.023,5.023,0,0,1-1.6-1.066A5.023,5.023,0,0,1-4.6-1.629,4.888,4.888,0,0,1-5-3.571a4.888,4.888,0,0,1,.4-1.942,5.023,5.023,0,0,1,1.066-1.6A5.023,5.023,0,0,1-1.942-8.175Zm5.4,7.137a4.179,4.179,0,0,0,.831-2.533v-.017l-.569.5L2.377-4.342l.352-1.8.748.067A4.2,4.2,0,0,0,1.306-7.651l.3.692L0-6.071l-1.6-.887.3-.692A4.2,4.2,0,0,0-3.477-6.077l.753-.067.346,1.8-1.339,1.25-.569-.5v.017a4.179,4.179,0,0,0,.831,2.533l.167-.737,1.819.223L-.692.112-1.339.5A4.208,4.208,0,0,0,0,.714,4.208,4.208,0,0,0,1.339.5L.692.112l.776-1.663,1.819-.223Z" transform="translate(40 395)"/>
    <path id="Pfad_262" data-name="Pfad 262" class="cls-1" d="M1.714-.241A18.1,18.1,0,0,0,.777-3.576H.763L.75-3.569l-.288.11q-.181.07-.676.328a8.592,8.592,0,0,0-.917.549,5.812,5.812,0,0,0-.877.767,3.588,3.588,0,0,0-.69.991L-2.8-.9a4.31,4.31,0,0,0,2.8,1A4.392,4.392,0,0,0,1.714-.241ZM.475-4.306Q.335-4.634.121-5.049a15.665,15.665,0,0,1-4.507.623,1.082,1.082,0,0,0-.007.141A4.309,4.309,0,0,0-4.1-2.7a4.4,4.4,0,0,0,.83,1.349,5.614,5.614,0,0,1,.827-1.115A5.986,5.986,0,0,1-1.487-3.3q.462-.315.874-.542a5.148,5.148,0,0,1,.666-.321L.3-4.252l.087-.023A.529.529,0,0,0,.475-4.306Zm-.717-1.42A23.042,23.042,0,0,0-1.875-8.257,4.334,4.334,0,0,0-3.442-7.011,4.34,4.34,0,0,0-4.3-5.19,15.89,15.89,0,0,0-.241-5.725Zm4.58,2.136A6.328,6.328,0,0,0,1.6-3.783,18.865,18.865,0,0,1,2.458-.643,4.388,4.388,0,0,0,3.7-1.912,4.331,4.331,0,0,0,4.339-3.589ZM-1.051-8.551a.019.019,0,0,0-.013.007A.019.019,0,0,1-1.051-8.551ZM2.9-7.58A4.233,4.233,0,0,0,0-8.679a4.429,4.429,0,0,0-1.038.127A19.112,19.112,0,0,1,.609-5.993,6.22,6.22,0,0,0,1.48-6.4a5.873,5.873,0,0,0,.646-.412,4.3,4.3,0,0,0,.439-.382,2.906,2.906,0,0,0,.251-.271ZM4.393-4.333a4.3,4.3,0,0,0-1-2.746l-.007.007q-.06.08-.127.164a3.845,3.845,0,0,1-.291.3,5.545,5.545,0,0,1-.475.405,6.814,6.814,0,0,1-.67.435,6.853,6.853,0,0,1-.881.432q.167.355.295.636.013.033.044.114a.768.768,0,0,0,.05.114q.241-.033.5-.047t.492-.013q.234,0,.462.01t.429.027q.2.017.378.037t.321.044l.244.04.167.03Zm.06-2.535a5.031,5.031,0,0,1,.69,2.581A5.031,5.031,0,0,1,4.453-1.7,5.12,5.12,0,0,1,2.581.167,5.031,5.031,0,0,1,0,.857,5.031,5.031,0,0,1-2.581.167,5.12,5.12,0,0,1-4.453-1.7a5.031,5.031,0,0,1-.69-2.581,5.031,5.031,0,0,1,.69-2.581A5.12,5.12,0,0,1-2.581-8.739,5.031,5.031,0,0,1,0-9.429a5.031,5.031,0,0,1,2.581.69A5.12,5.12,0,0,1,4.453-6.867Z" transform="translate(60 395)"/>
    <path id="Pfad_264" data-name="Pfad 264" class="cls-1" d="M.65,0h14.7a.65.65,0,0,1,0,1.3H.65A.65.65,0,0,1,.65,0Z" transform="translate(33 399)"/>
    <path id="Pfad_266" data-name="Pfad 266" class="cls-1" d="M.65,0h14.7a.65.65,0,0,1,0,1.3H.65A.65.65,0,0,1,.65,0Z" transform="translate(54 399)"/>
    <path id="Pfad_265" data-name="Pfad 265" class="cls-1" d="M.65,0h8.7a.65.65,0,0,1,0,1.3H.65A.65.65,0,0,1,.65,0Z" transform="translate(33 402)"/>
    <path id="Pfad_263" data-name="Pfad 263" class="cls-1" d="M.65,0h8.7a.65.65,0,0,1,0,1.3H.65A.65.65,0,0,1,.65,0Z" transform="translate(54 402)"/>
  </g>
</svg>
