<svg xmlns="http://www.w3.org/2000/svg" viewBox="4148.5 128 35 18.476">
  <defs>
    <style>
      .cls-1 {
        fill: none;
      }

      .cls-2, .cls-4 {
        fill: #5cbcf6;
      }

      .cls-3, .cls-4 {
        stroke: none;
      }
    </style>
  </defs>
  <g id="Gruppe_12" data-name="Gruppe 12" transform="translate(3976 24)">
    <g id="Pfad_243" data-name="Pfad 243" class="cls-1" transform="translate(172.5 104)">
      <path class="cls-3" d="M2,0H33a2,2,0,0,1,2,2V9.667a2,2,0,0,1-2,2H2a2,2,0,0,1-2-2V2A2,2,0,0,1,2,0Z"/>
      <path class="cls-4" d="M 33 10.66666316986084 C 33.55139923095703 10.66666316986084 34 10.21806335449219 34 9.66666316986084 L 34 2.000003576278687 C 34 1.448603510856628 33.55139923095703 1.000003457069397 33 1.000003457069397 L 2 1.000003457069397 C 1.448600053787231 1.000003457069397 1 1.448603510856628 1 2.000003576278687 L 1 9.66666316986084 C 1 10.21806335449219 1.448600053787231 10.66666316986084 2 10.66666316986084 L 33 10.66666316986084 M 33 11.66666316986084 L 2 11.66666316986084 C 0.8954300284385681 11.66666316986084 0 10.77123355865479 0 9.66666316986084 L 0 2.000003576278687 C 0 0.8954334855079651 0.8954300284385681 3.492279120109743e-06 2 3.492279120109743e-06 L 33 3.492279120109743e-06 C 34.10456848144531 3.492279120109743e-06 35 0.8954334855079651 35 2.000003576278687 L 35 9.66666316986084 C 35 10.77123355865479 34.10456848144531 11.66666316986084 33 11.66666316986084 Z"/>
    </g>
    <path id="Pfad_242" data-name="Pfad 242" class="cls-2" d="M4.127-4.127a.476.476,0,0,1,.117.578.5.5,0,0,1-.494.335H.552L2.235.77a.523.523,0,0,1,0,.41.542.542,0,0,1-.285.293L.469,2.1a.523.523,0,0,1-.41,0,.542.542,0,0,1-.293-.285l-1.6-3.783L-4.445.645A.515.515,0,0,1-4.821.8a.519.519,0,0,1-.2-.042A.5.5,0,0,1-5.357.268V-12.321a.5.5,0,0,1,.335-.494.519.519,0,0,1,.2-.042.5.5,0,0,1,.377.159Z" transform="translate(189.167 120.333)"/>
  </g>
</svg>
