<svg version="1.1" xmlns="http://www.w3.org/2000/svg" xmlns:xlink="http://www.w3.org/1999/xlink" x="0px" y="0px" viewBox="0 0 180.59 56.67" style="enable-background:new 0 0 180.59 56.67;" xml:space="preserve">
	<path class="logo" fill="#ffffff" d="M68.32,0H7.78C3.48,0,0,3.48,0,7.78V48.9c0,4.3,3.48,7.78,7.78,7.78h60.55c4.3,0,7.78-3.48,7.78-7.78V7.78C76.1,3.48,72.62,0,68.32,0z M29.49,41.11c0,3.81-0.8,6.21-2.38,7.16c-1.08,0.65-3.69,0.97-7.77,0.97c-3.34,0-5.53-0.52-6.5-1.54c-0.97-1.03-1.47-3.24-1.47-6.59v-8.81h7.8v8.25c0,1.77,0.7,2.14,1.29,2.14c0.48,0,1.07-0.25,1.19-1.47V9.29h7.84V41.11z M47.29,15.61h-3.92v33.47h-7.85V15.61H31.6V9.29h15.7V15.61z M62.5,49.08H49.95V9.29h7.79v33.24h4.77V49.08z"/>

	<path class="product" fill="#ffffff" d="M95.35,34.5c0,0,2.66,3.02,5.9,3.02c1.3,0,2.59-0.47,2.59-1.91c0-2.84-11.66-3.17-11.66-11.23c0-4.64,4.07-7.74,9.18-7.74c3.42,0,8.21,1.66,8.21,5.58v2.81h-5.76v-1.12c0-0.94-1.33-1.51-2.52-1.51c-1.3,0-2.63,0.54-2.63,1.73c0,3.13,11.66,2.7,11.66,11.16c0,4.28-3.35,7.96-9.14,7.96c-6.05,0-9.39-4.25-9.39-4.25L95.35,34.5z"/>
	<path class="product" fill="#ffffff" d="M114.1,23.09c0-0.5-0.29-0.79-0.79-0.79h-1.37v-5.22h5.76c1.84,0,2.63,0.79,2.63,2.63v5.51c0,0.94-0.07,1.58-0.07,1.58h0.07c1.04-1.84,3.2-2.95,5.65-2.95c3.74,0,6.66,1.73,6.66,6.95v6.01c0,0.5,0.29,0.79,0.79,0.79h1.37v5.22h-5.76c-1.84,0-2.63-0.79-2.63-2.63v-8.24c0-1.73-0.68-2.45-2.05-2.45c-1.91,0-3.17,1.12-3.71,2.74c-0.25,0.72-0.32,1.51-0.32,2.38v8.21h-6.23V23.09z"/>
	<path class="product" fill="#ffffff" d="M146.75,23.85c5.87,0,10.51,3.92,10.51,9.75c0,5.79-4.64,9.65-10.47,9.65c-5.83,0-10.48-3.85-10.48-9.65C136.31,27.77,140.96,23.85,146.75,23.85z M146.79,38.07c2.27,0,4.21-1.69,4.21-4.46c0-2.81-1.94-4.57-4.21-4.57c-2.27,0-4.21,1.76-4.21,4.57C142.58,36.38,144.52,38.07,146.79,38.07z"/>
	<path class="product" fill="#ffffff" d="M161.01,30.29c0-0.5-0.29-0.79-0.79-0.79h-1.37v-5.22h5.36c1.8,0,2.41,0.83,2.41,1.62c0,0.22,0,0.32,0,0.32h0.07c0,0,1.62-2.38,5.54-2.38c5.04,0,8.35,3.96,8.35,9.72c0,5.87-3.71,9.68-8.64,9.68c-3.02,0-4.71-1.58-4.71-1.58h-0.07c0,0,0.07,0.65,0.07,1.58v6.77h-6.23V30.29z M170.69,38.1c1.94,0,3.64-1.58,3.64-4.43c0-2.77-1.48-4.57-3.64-4.57c-1.87,0-3.64,1.37-3.64,4.57C167.06,35.91,168.25,38.1,170.69,38.1z"/>
</svg>