<svg xmlns="http://www.w3.org/2000/svg" viewBox="1085.605 269.929 41 14.714">
  <defs>
    <style>
      .cls-1 {
        fill: #5cbcf6;
        stroke: rgba(0,0,0,0);
      }
    </style>
  </defs>
  <path id="BilderSlider" class="cls-1" d="M-3959.359-150.286a1.373,1.373,0,0,1-1.009-.42,1.373,1.373,0,0,1-.42-1.009v-10.857a1.373,1.373,0,0,1,.42-1.009,1.373,1.373,0,0,1,1.009-.42h14.285a1.377,1.377,0,0,1,1.01.42,1.377,1.377,0,0,1,.42,1.009v10.857a1.377,1.377,0,0,1-.42,1.009,1.377,1.377,0,0,1-1.01.42Zm-.2-12.487a.274.274,0,0,0-.085.2v10.857a.274.274,0,0,0,.085.2.278.278,0,0,0,.2.085h14.285a.278.278,0,0,0,.2-.085.274.274,0,0,0,.085-.2v-10.857a.274.274,0,0,0-.085-.2.278.278,0,0,0-.2-.085h-14.285A.278.278,0,0,0-3959.561-162.773Zm1.059,10.2v-1.714l2.857-2.857,1.428,1.429,4.572-4.572,3.713,3.714v4Zm22.4-1.054-.779-.788a.291.291,0,0,1-.09-.213.293.293,0,0,1,.09-.213l2.491-2.517-2.491-2.518a.293.293,0,0,1-.09-.213.293.293,0,0,1,.09-.213l.779-.788a.288.288,0,0,1,.211-.09.29.29,0,0,1,.211.09l3.482,3.519a.294.294,0,0,1,.089.213.3.3,0,0,1-.089.213l-3.482,3.518a.29.29,0,0,1-.211.09A.288.288,0,0,1-3936.105-153.625Zm-32.435,0-3.482-3.518a.294.294,0,0,1-.09-.213.291.291,0,0,1,.09-.213l3.482-3.519a.286.286,0,0,1,.21-.09.287.287,0,0,1,.211.09l.78.788a.3.3,0,0,1,.089.213.3.3,0,0,1-.089.213l-2.492,2.518,2.492,2.517a.3.3,0,0,1,.089.213.294.294,0,0,1-.089.213l-.78.788a.287.287,0,0,1-.211.09A.286.286,0,0,1-3968.54-153.625Zm10.538-5.16a1.657,1.657,0,0,1-.5-1.215,1.656,1.656,0,0,1,.5-1.214,1.656,1.656,0,0,1,1.214-.5,1.653,1.653,0,0,1,1.214.5,1.654,1.654,0,0,1,.5,1.214,1.654,1.654,0,0,1-.5,1.215,1.653,1.653,0,0,1-1.214.5A1.656,1.656,0,0,1-3958-158.785Z" transform="translate(5058.217 434.429)"/>
</svg>
