<svg xmlns="http://www.w3.org/2000/svg" viewBox="4008.5 267 35 18">
  <defs>
    <style>
      .cls-1 {
        fill: none;
      }

      .cls-2, .cls-4 {
        fill: #5cbcf6;
      }

      .cls-3, .cls-4 {
        stroke: none;
      }
    </style>
  </defs>
  <g id="Icon-Banner" transform="translate(3976 164)">
    <g id="Pfad_269" data-name="Pfad 269" class="cls-1" transform="translate(32.5 103)">
      <path class="cls-3" d="M3,0H32a3,3,0,0,1,3,3V15a3,3,0,0,1-3,3H3a3,3,0,0,1-3-3V3A3,3,0,0,1,3,0Z"/>
      <path class="cls-4" d="M 32 16.70000076293945 C 32.93738174438477 16.70000076293945 33.70000076293945 15.93737983703613 33.70000076293945 15 L 33.70000076293945 3 C 33.70000076293945 2.062619924545288 32.93738174438477 1.299999952316284 32 1.299999952316284 L 3 1.299999952316284 C 2.062619924545288 1.299999952316284 1.299999952316284 2.062619924545288 1.299999952316284 3 L 1.299999952316284 15 C 1.299999952316284 15.93737983703613 2.062619924545288 16.70000076293945 3 16.70000076293945 L 32 16.70000076293945 M 32 18 L 3 18 C 1.343150019645691 18 0 16.65685081481934 0 15 L 0 3 C 0 1.343150019645691 1.343150019645691 0 3 0 L 32 0 C 33.6568489074707 0 35 1.343150019645691 35 3 L 35 15 C 35 16.65685081481934 33.6568489074707 18 32 18 Z"/>
    </g>
    <path id="Pfad_268" data-name="Pfad 268" class="cls-2" d="M-2.1-6.116a1.033,1.033,0,0,1,.313.759A1.033,1.033,0,0,1-2.1-4.6a1.033,1.033,0,0,1-.759.313A1.033,1.033,0,0,1-3.616-4.6a1.033,1.033,0,0,1-.312-.759,1.033,1.033,0,0,1,.313-.759,1.033,1.033,0,0,1,.759-.312A1.033,1.033,0,0,1-2.1-6.116Zm6.027,2.9v2.5H-3.929V-1.786l1.786-1.786.893.893L1.607-5.536Zm.536-3.929H-4.464a.172.172,0,0,0-.126.053.172.172,0,0,0-.053.126V-.179a.172.172,0,0,0,.053.126A.172.172,0,0,0-4.464,0H4.464A.172.172,0,0,0,4.59-.053a.172.172,0,0,0,.053-.126V-6.964A.172.172,0,0,0,4.59-7.09.172.172,0,0,0,4.464-7.143Zm.893.179V-.179a.86.86,0,0,1-.262.631.86.86,0,0,1-.631.262H-4.464A.86.86,0,0,1-5.095.452a.86.86,0,0,1-.262-.631V-6.964a.86.86,0,0,1,.262-.631.86.86,0,0,1,.631-.262H4.464a.86.86,0,0,1,.631.262A.86.86,0,0,1,5.357-6.964Z" transform="translate(57 116)"/>
    <path id="Pfad_267" data-name="Pfad 267" class="cls-2" d="M-.478-4.362l-.759,2.009q.147,0,.609.009t.717.009q.085,0,.254-.009A17.923,17.923,0,0,0-.478-4.362ZM-3.714.571l.009-.353a2.006,2.006,0,0,1,.25-.056Q-3.308.138-3.2.116A1.525,1.525,0,0,0-2.98.051a.535.535,0,0,0,.2-.129A.659.659,0,0,0-2.643-.3l1.058-2.75,1.25-3.232H.237a1.029,1.029,0,0,1,.049.094L1.2-4.049q.147.348.473,1.15t.509,1.225q.067.152.259.645t.321.752a.735.735,0,0,0,.156.254,1.109,1.109,0,0,0,.393.132A3.31,3.31,0,0,1,3.688.2a1.792,1.792,0,0,1,.027.254q0,.022,0,.06t0,.056q-.281,0-.848-.036T2.009.5q-.339,0-.96.031T.254.567A3.086,3.086,0,0,1,.272.219L.857.094.913.083.982.067l.065-.02A.3.3,0,0,0,1.114.018l.049-.036A.123.123,0,0,0,1.2-.067a.162.162,0,0,0,.011-.063A2.063,2.063,0,0,0,1.076-.56Q.937-.92.754-1.353T.567-1.8l-2.009-.009q-.116.259-.342.873a3.8,3.8,0,0,0-.225.725.241.241,0,0,0,.063.167.422.422,0,0,0,.194.109q.132.04.217.06a2.191,2.191,0,0,0,.254.038L-1.1.183q0,.085,0,.259A1.2,1.2,0,0,1-1.1.563q-.259,0-.779-.045T-2.661.473a.645.645,0,0,0-.118.018.844.844,0,0,1-.1.018A4.929,4.929,0,0,1-3.714.571Z" transform="translate(42 115)"/>
  </g>
</svg>
