<svg xmlns="http://www.w3.org/2000/svg" viewBox="1158.5 128 35 18.476">
  <defs>
    <style>
      .cls-1 {
        fill: none;
      }

      .cls-2, .cls-4 {
        fill: #5cbcf6;
      }

      .cls-3, .cls-4 {
        stroke: none;
      }
    </style>
  </defs>
  <g id="Gruppe_35" data-name="Gruppe 35" transform="translate(986 24)">
    <g id="Pfad_255" data-name="Pfad 255" class="cls-1" transform="translate(172.5 104)">
      <path class="cls-3" d="M3,0H32a3,3,0,0,1,3,3V9a3,3,0,0,1-3,3H3A3,3,0,0,1,0,9V3A3,3,0,0,1,3,0Z"/>
      <path class="cls-4" d="M 32 10.69999980926514 C 32.93738174438477 10.69999980926514 33.70000076293945 9.937379837036133 33.70000076293945 9 L 33.70000076293945 3 C 33.70000076293945 2.062619924545288 32.93738174438477 1.299999952316284 32 1.299999952316284 L 3 1.299999952316284 C 2.062619924545288 1.299999952316284 1.299999952316284 2.062619924545288 1.299999952316284 3 L 1.299999952316284 9 C 1.299999952316284 9.937379837036133 2.062619924545288 10.69999980926514 3 10.69999980926514 L 32 10.69999980926514 M 32 12 L 3 12 C 1.343150019645691 12 0 10.65684986114502 0 9 L 0 3 C 0 1.343150019645691 1.343150019645691 -8.881784197001252e-16 3 -8.881784197001252e-16 L 32 -8.881784197001252e-16 C 33.6568489074707 -8.881784197001252e-16 35 1.343150019645691 35 3 L 35 9 C 35 10.65684986114502 33.6568489074707 12 32 12 Z"/>
    </g>
    <path id="Pfad_242" data-name="Pfad 242" class="cls-2" d="M4.127-4.127a.476.476,0,0,1,.117.578.5.5,0,0,1-.494.335H.552L2.235.77a.523.523,0,0,1,0,.41.542.542,0,0,1-.285.293L.469,2.1a.523.523,0,0,1-.41,0,.542.542,0,0,1-.293-.285l-1.6-3.783L-4.445.645A.515.515,0,0,1-4.821.8a.519.519,0,0,1-.2-.042A.5.5,0,0,1-5.357.268V-12.321a.5.5,0,0,1,.335-.494.519.519,0,0,1,.2-.042.5.5,0,0,1,.377.159Z" transform="translate(189.357 120.333)"/>
  </g>
</svg>
