<svg xmlns="http://www.w3.org/2000/svg" viewBox="1019 569.812 35 19.122">
  <defs>
    <style>
      .cls-1, .cls-4 {
        fill: #5cbcf6;
      }

      .cls-2 {
        fill: none;
      }

      .cls-3, .cls-4 {
        stroke: none;
      }
    </style>
  </defs>
  <g id="Icon-Akordeon" transform="translate(986 466)">
    <path id="Pfad_248" data-name="Pfad 248" class="cls-1" d="M1054.14,345.768h-18.8a.741.741,0,0,1,0-1.468h18.8a.683.683,0,0,1,.636.734A.7.7,0,0,1,1054.14,345.768Z" transform="translate(-994.238 -222.834)"/>
    <path id="Pfad_250" data-name="Pfad 250" class="cls-1" d="M1054.14,345.768h-18.8a.741.741,0,0,1,0-1.468h18.8a.683.683,0,0,1,.636.734A.7.7,0,0,1,1054.14,345.768Z" transform="translate(-994.238 -240.488)"/>
    <g id="Pfad_256" data-name="Pfad 256" class="cls-2" transform="translate(33 107)">
      <path class="cls-3" d="M3,0H32a3.1,3.1,0,0,1,3,3.2V9.589a3.1,3.1,0,0,1-3,3.2H3a3.1,3.1,0,0,1-3-3.2V3.2A3.1,3.1,0,0,1,3,0Z"/>
      <path class="cls-4" d="M 32 11.48497676849365 C 32.93738174438477 11.48497676849365 33.70000076293945 10.63432693481445 33.70000076293945 9.588726997375488 L 33.70000076293945 3.19624662399292 C 33.70000076293945 2.150646686553955 32.93738174438477 1.299996614456177 32 1.299996614456177 L 3 1.299996614456177 C 2.062619924545288 1.299996614456177 1.299999952316284 2.150646686553955 1.299999952316284 3.19624662399292 L 1.299999952316284 9.588726997375488 C 1.299999952316284 10.63432693481445 2.062619924545288 11.48497676849365 3 11.48497676849365 L 32 11.48497676849365 M 32 12.78497695922852 L 3 12.78497695922852 C 1.343150019645691 12.78497695922852 0 11.35396671295166 0 9.588726997375488 L 0 3.19624662399292 C 0 1.431006550788879 1.343150019645691 -3.427734327487997e-06 3 -3.427734327487997e-06 L 32 -3.427734327487997e-06 C 33.6568489074707 -3.427734327487997e-06 35 1.431006550788879 35 3.19624662399292 L 35 9.588726997375488 C 35 11.35396671295166 33.6568489074707 12.78497695922852 32 12.78497695922852 Z"/>
    </g>
  </g>
</svg>
