<svg xmlns="http://www.w3.org/2000/svg" viewBox="1155.604 271.072 41 12.428">
  <defs>
    <style>
      .cls-1 {
        fill: #5cbcf6;
        stroke: rgba(0,0,0,0);
      }
    </style>
  </defs>
  <path id="Icon-Produktslider" class="cls-1" d="M-962.645-153.745a3.853,3.853,0,0,1-1.174-2.826,3.9,3.9,0,0,1,.353-1.639,4.025,4.025,0,0,1,.977-1.335l-.581-.875-3.152,4.188a.521.521,0,0,1-.455.232h-1.759a3.867,3.867,0,0,1-1.33,2.446,3.87,3.87,0,0,1-2.625.982,3.856,3.856,0,0,1-2.826-1.174,3.856,3.856,0,0,1-1.174-2.826,3.854,3.854,0,0,1,1.174-2.826,3.853,3.853,0,0,1,2.826-1.174,3.952,3.952,0,0,1,1.92.491l1.223-1.634h-2a.546.546,0,0,1-.4-.169.549.549,0,0,1-.17-.4.55.55,0,0,1,.17-.4.546.546,0,0,1,.4-.169h3.429v1.142h3.883l-.759-1.142h-1.983a.548.548,0,0,1-.4-.17.548.548,0,0,1-.17-.4.55.55,0,0,1,.17-.4.551.551,0,0,1,.4-.169h2.286a.553.553,0,0,1,.473.25l2.384,3.571a3.887,3.887,0,0,1,1.714-.393,3.85,3.85,0,0,1,2.826,1.174,3.852,3.852,0,0,1,1.174,2.826,3.853,3.853,0,0,1-1.174,2.826,3.853,3.853,0,0,1-2.826,1.174A3.852,3.852,0,0,1-962.645-153.745Zm-.031-2.826a2.754,2.754,0,0,0,.839,2.018,2.754,2.754,0,0,0,2.018.839,2.756,2.756,0,0,0,2.019-.839,2.754,2.754,0,0,0,.839-2.018,2.752,2.752,0,0,0-.839-2.018,2.753,2.753,0,0,0-2.019-.84,2.932,2.932,0,0,0-1.08.214l1.553,2.322a.572.572,0,0,1,.089.437.524.524,0,0,1-.24.357.536.536,0,0,1-.322.1.522.522,0,0,1-.473-.259l-1.554-2.321A2.774,2.774,0,0,0-962.676-156.571Zm-11.732-2.018a2.749,2.749,0,0,0-.839,2.018,2.75,2.75,0,0,0,.839,2.018,2.754,2.754,0,0,0,2.018.839,2.765,2.765,0,0,0,1.813-.647,2.8,2.8,0,0,0,.991-1.638h-2.8a.532.532,0,0,1-.513-.313.532.532,0,0,1,.058-.6l1.678-2.241a2.808,2.808,0,0,0-1.223-.277A2.751,2.751,0,0,0-974.408-158.589Zm4.848-.8a3.811,3.811,0,0,1,1.125,2.25h1.473l2.571-3.429h-4.286Zm-1.687,2.25h1.661a2.794,2.794,0,0,0-.67-1.321Zm21.254,3.374-.779-.788a.291.291,0,0,1-.089-.213.294.294,0,0,1,.089-.213l2.492-2.517-2.492-2.517a.294.294,0,0,1-.089-.213.3.3,0,0,1,.089-.214l.779-.787a.285.285,0,0,1,.211-.09.286.286,0,0,1,.211.09l3.482,3.518a.294.294,0,0,1,.089.213.294.294,0,0,1-.089.213l-3.482,3.518a.286.286,0,0,1-.211.09A.285.285,0,0,1-949.993-153.769Zm-32.436,0-3.482-3.518A.294.294,0,0,1-986-157.5a.294.294,0,0,1,.089-.213l3.482-3.518a.287.287,0,0,1,.211-.09.287.287,0,0,1,.211.09l.779.787a.3.3,0,0,1,.089.214.294.294,0,0,1-.089.213l-2.492,2.517,2.492,2.517a.294.294,0,0,1,.089.213.291.291,0,0,1-.089.213l-.779.788a.287.287,0,0,1-.211.09A.287.287,0,0,1-982.429-153.769Z" transform="translate(2142.105 435.571)"/>
</svg>
