<svg xmlns="http://www.w3.org/2000/svg" viewBox="4082.857 499.143 25.286 19.857">
  <defs>
    <style>
      .cls-1 {
        fill: #5cbcf6;
      }
    </style>
  </defs>
  <g id="Icon-Tab" transform="translate(3976 396)">
    <path id="Pfad_260" data-name="Pfad 260" class="cls-1" d="M9.429-2V-12.429a1.24,1.24,0,0,0-.375-.911,1.24,1.24,0,0,0-.911-.375H-6.286a1.24,1.24,0,0,1-.911-.375A1.24,1.24,0,0,1-7.571-15v-.857a1.24,1.24,0,0,0-.375-.911,1.24,1.24,0,0,0-.911-.375h-2.286a1.24,1.24,0,0,0-.911.375,1.24,1.24,0,0,0-.375.911V-2a1.24,1.24,0,0,0,.375.911,1.24,1.24,0,0,0,.911.375H8.143a1.24,1.24,0,0,0,.911-.375A1.24,1.24,0,0,0,9.429-2Zm1.714-10.429V-2A2.887,2.887,0,0,1,10.259.116,2.887,2.887,0,0,1,8.143,1H-11.143A2.887,2.887,0,0,1-13.259.116,2.887,2.887,0,0,1-14.143-2V-15.857a2.887,2.887,0,0,1,.884-2.116,2.887,2.887,0,0,1,2.116-.884h2.286a2.887,2.887,0,0,1,2.116.884,2.887,2.887,0,0,1,.884,2.116v.429h14a2.887,2.887,0,0,1,2.116.884A2.887,2.887,0,0,1,11.143-12.429Z" transform="translate(121 122)"/>
    <path id="Pfad_257" data-name="Pfad 257" class="cls-1" d="M2,0H4A2,2,0,0,1,6,2V4H0V2A2,2,0,0,1,2,0Z" transform="translate(115 104)"/>
    <path id="Pfad_256" data-name="Pfad 256" class="cls-1" d="M2,0H4A2,2,0,0,1,6,2V4H0V2A2,2,0,0,1,2,0Z" transform="translate(121 104)"/>
  </g>
</svg>
