<svg xmlns="http://www.w3.org/2000/svg" viewBox="4152.731 501.635 27.55 14.525">
  <defs>
    <style>
      .cls-1 {
        fill: #5cbcf6;
      }
    </style>
  </defs>
  <path id="HorizontaleLinie" class="cls-1" d="M-3975.127-381.475a.865.865,0,0,1-.873-.873.864.864,0,0,1,.873-.872h25.8a.864.864,0,0,1,.873.872.887.887,0,0,1-.873.873Zm19.484-5.2-1.572-3.142h-1.222v3.142h-2.409V-396h4.679a3.007,3.007,0,0,1,3.247,3.107,2.83,2.83,0,0,1-1.851,2.793l1.886,3.422Zm-2.759-5.2h1.886a1.048,1.048,0,0,0,1.153-1.013,1.025,1.025,0,0,0-1.153-.978h-1.886Zm-6.529,5.2v-3.736h-3.877v3.736h-2.409V-396h2.409v3.491h3.877V-396h2.409v9.322Z" transform="translate(8128.731 897.634)"/>
</svg>
