<svg xmlns="http://www.w3.org/2000/svg" viewBox="4086 195.458 20.021 20.673">
  <defs>
    <style>
      .cls-1 {
        fill: #5cbcf6;
      }
    </style>
  </defs>
  <path id="Vereinigungsmenge_4" data-name="Vereinigungsmenge 4" class="cls-1" d="M-4080.993-174.785a3.267,3.267,0,0,1-3.258-3.258v-9.34a3.267,3.267,0,0,1,3.258-3.258h11.757a3.268,3.268,0,0,1,3.258,3.258v9.34a3.268,3.268,0,0,1-3.258,3.258Zm-1.9-12.6v9.34a1.889,1.889,0,0,0,1.9,1.9h11.757a1.889,1.889,0,0,0,1.9-1.9v-9.34a1.889,1.889,0,0,0-1.9-1.9h-11.757A1.888,1.888,0,0,0-4082.894-187.383Zm.787,9.557v-.625a.745.745,0,0,1,.218-.516l2.417-2.416a.72.72,0,0,1,1,0l.6.6a.72.72,0,0,0,1,0l4.155-4.127a.721.721,0,0,1,1,0l3.258,3.258a.745.745,0,0,1,.218.516v3.312a.7.7,0,0,1-.707.707h-12.436l-.047,0A.694.694,0,0,1-4082.107-177.826Zm.028-7.6a1.737,1.737,0,0,1,1.737-1.737,1.738,1.738,0,0,1,1.738,1.737,1.738,1.738,0,0,1-1.738,1.737A1.737,1.737,0,0,1-4082.079-185.428Zm-3.828-3.339a2.984,2.984,0,0,1,2.172-3.612l11.92-2.986a2.983,2.983,0,0,1,3.611,2.172l.434,1.765a3.554,3.554,0,0,0-1.194-.19h-12.3a3.934,3.934,0,0,0-3.964,3.964v1.6Z" transform="translate(8172 390.916)"/>
</svg>
